<?xml version="1.0" encoding="utf-8"?>
<!-- Generator: Adobe Illustrator 26.0.3, SVG Export Plug-In . SVG Version: 6.00 Build 0)  -->
<svg version="1.1" id="Layer_1" xmlns="http://www.w3.org/2000/svg" xmlns:xlink="http://www.w3.org/1999/xlink" x="0px" y="0px"
	 viewBox="0 0 642 212" style="enable-background:new 0 0 642 212;" xml:space="preserve">
<style type="text/css">
	.st0{fill:#4F97D1;}
</style>
<g>
	<path class="st0" d="M141.23,8.55c11.54,4.24,20.46,10.31,26.78,18.2c6.31,7.89,9.47,17.16,9.47,27.82
		c0,10.85-3.21,20.32-9.62,28.41c-6.41,8.09-15.14,13.61-26.19,16.57c13.21,2.57,23.62,8.58,31.22,18.05
		c7.59,9.47,11.39,20.91,11.39,34.33c0,11.64-3.25,21.85-9.77,30.63c-6.51,8.78-15.79,15.49-27.82,20.12
		c-12.04,4.64-26.14,6.95-42.32,6.95H2V2.18h98.54C116.12,2.18,129.69,4.31,141.23,8.55z M115.34,79.27
		c4.34-3.65,6.51-8.73,6.51-15.24c0-6.31-2.17-11.19-6.51-14.65c-4.34-3.45-10.26-5.08-17.76-4.88H56.15v40.25h41.43
		C105.08,84.75,111,82.92,115.34,79.27z M120.07,161.69c5.52-3.94,8.29-9.47,8.29-16.57c0-6.51-2.76-11.69-8.29-15.54
		c-5.52-3.85-13.02-5.67-22.49-5.47H56.15v43.5h41.43C107.05,167.6,114.55,165.63,120.07,161.69z"/>
	<path class="st0" d="M360.8,15.2c16.67,8.68,29.64,20.86,38.92,36.55c9.27,15.68,13.91,33.69,13.91,54
		c0,20.32-4.69,38.37-14.06,54.15c-9.37,15.79-22.59,28.02-39.65,36.7c-17.07,8.68-36.65,13.02-58.74,13.02h-87.3V2.18h89.37
		C324.94,2.18,344.13,6.53,360.8,15.2z M332.54,158.43c8.09-4.93,14.4-11.93,18.94-21.01c4.54-9.07,6.81-19.43,6.81-31.07
		c0-11.84-2.42-22.29-7.25-31.37c-4.84-9.07-11.49-16.13-19.97-21.16c-8.48-5.03-18.15-7.55-29-7.55h-34.03v119.55h36.69
		C315.18,165.83,324.45,163.36,332.54,158.43z"/>
	<path class="st0" d="M640,209.62h-64.81l-54.45-80.49l-26.04,29v51.49h-54.15V2.18h54.15v89.96l77.83-89.96h62.74l-76.94,85.52
		L640,209.62z"/>
</g>
</svg>
